HIERARCHY
ROOT Hips
{
	OFFSET 0.000000 71.427986 0.000000
	CHANNELS 6 Xposition Yposition Zposition Xrotation Yrotation Zrotation
	JOINT Pelvis
	{
		OFFSET 0.000000 0.000000 0.000000
		CHANNELS 3 Xrotation Yrotation Zrotation
		JOINT LeftUpLeg
		{
			OFFSET 6.797100 -2.508499 -1.318700
			CHANNELS 3 Xrotation Yrotation Zrotation
			JOINT LeftLeg
			{
				OFFSET 0.069008 -29.241863 0.690200
				CHANNELS 3 Xrotation Yrotation Zrotation
				JOINT LeftFoot
				{
					OFFSET -0.069008 -29.568123 -0.266800
					CHANNELS 3 Xrotation Yrotation Zrotation
					JOINT LeftToeBase
					{
						OFFSET 3.145500 -8.631000 16.059900
						CHANNELS 3 Xrotation Yrotation Zrotation
						End Site
						{
							OFFSET 0.000000 18.501587 0.000000
						}
					}
				}
			}
			JOINT Left_ShortSleeve
			{
				OFFSET 0.265923 -10.480953 1.153800
				CHANNELS 3 Xrotation Yrotation Zrotation
				End Site
				{
					OFFSET 1.725763 19.823879 0.000000
				}
			}
		}
		JOINT RightUpLeg
		{
			OFFSET -6.797100 -2.508499 -1.318700
			CHANNELS 3 Xrotation Yrotation Zrotation
			JOINT RightLeg
			{
				OFFSET -0.082453 -29.241932 0.688000
				CHANNELS 3 Xrotation Yrotation Zrotation
				JOINT RightFoot
				{
					OFFSET 0.082453 -29.568058 -0.264600
					CHANNELS 3 Xrotation Yrotation Zrotation
					JOINT RightToeBase
					{
						OFFSET -3.115300 -8.682800 16.113400
						CHANNELS 3 Xrotation Yrotation Zrotation
						End Site
						{
							OFFSET 0.000000 18.567114 0.000000
						}
					}
				}
			}
			JOINT Right_ShortSleeve
			{
				OFFSET -0.265923 -10.480953 1.153800
				CHANNELS 3 Xrotation Yrotation Zrotation
				End Site
				{
					OFFSET -1.725766 19.823910 0.000000
				}
			}
		}
	}
	JOINT Spine
	{
		OFFSET 0.000000 13.368103 0.470500
		CHANNELS 3 Xrotation Yrotation Zrotation
		JOINT Spine1
		{
			OFFSET 0.147000 13.837402 0.538800
			CHANNELS 3 Xrotation Yrotation Zrotation
			JOINT Spine2
			{
				OFFSET 0.168000 16.242897 -1.435500
				CHANNELS 3 Xrotation Yrotation Zrotation
				JOINT Neck
				{
					OFFSET 0.217200 18.631500 -1.679100
					CHANNELS 3 Xrotation Yrotation Zrotation
					JOINT Head
					{
						OFFSET 0.000000 6.599396 1.385900
						CHANNELS 3 Xrotation Yrotation Zrotation
						JOINT Hat
						{
							OFFSET -0.532200 27.220596 -10.096100
							CHANNELS 3 Xrotation Yrotation Zrotation
							End Site
							{
								OFFSET 0.000000 22.029861 0.000000
							}
						}
						JOINT HairD
						{
							OFFSET -10.777400 17.437393 -1.325900
							CHANNELS 3 Xrotation Yrotation Zrotation
							JOINT HairD1
							{
								OFFSET -3.290299 -11.051193 1.062200
								CHANNELS 3 Xrotation Yrotation Zrotation
								End Site
								{
									OFFSET 0.000000 11.579437 0.000000
								}
							}
						}
						JOINT HairB
						{
							OFFSET -10.777400 17.437393 1.467900
							CHANNELS 3 Xrotation Yrotation Zrotation
							JOINT HairB1
							{
								OFFSET -1.561200 -12.956299 3.590200
								CHANNELS 3 Xrotation Yrotation Zrotation
								End Site
								{
									OFFSET 0.000000 13.534866 0.000000
								}
							}
						}
						JOINT HairA
						{
							OFFSET 9.713100 17.437393 1.467900
							CHANNELS 3 Xrotation Yrotation Zrotation
							JOINT HairA1
							{
								OFFSET 1.561200 -12.956299 3.590200
								CHANNELS 3 Xrotation Yrotation Zrotation
								End Site
								{
									OFFSET 0.000000 13.534866 0.000000
								}
							}
						}
						JOINT HairC
						{
							OFFSET 9.713100 17.437393 -1.325900
							CHANNELS 3 Xrotation Yrotation Zrotation
							JOINT HairC1
							{
								OFFSET 3.290300 -11.051193 1.062200
								CHANNELS 3 Xrotation Yrotation Zrotation
								End Site
								{
									OFFSET 0.000000 11.579437 0.000000
								}
							}
						}
					}
				}
				JOINT LeftShoulder
				{
					OFFSET 5.101800 15.108002 -2.763700
					CHANNELS 3 Xrotation Yrotation Zrotation
					JOINT LeftArm
					{
						OFFSET 9.825497 2.506317 -1.597400
						CHANNELS 3 Xrotation Yrotation Zrotation
						JOINT LeftForeArm
						{
							OFFSET 21.966244 0.000000 0.000000
							CHANNELS 3 Xrotation Yrotation Zrotation
							JOINT LeftHand
							{
								OFFSET 33.879036 0.000000 0.000000
								CHANNELS 3 Xrotation Yrotation Zrotation
								JOINT LeftHandThumb1
								{
									OFFSET 6.715286 -2.359680 3.363841
									CHANNELS 3 Xrotation Yrotation Zrotation
									JOINT LeftHandThumb2
									{
										OFFSET 2.507072 -1.447464 1.447461
										CHANNELS 3 Xrotation Yrotation Zrotation
										JOINT LeftHandThumb3
										{
											OFFSET 2.898338 -1.673355 1.673357
											CHANNELS 3 Xrotation Yrotation Zrotation
											End Site
											{
												OFFSET -0.295959 3.727692 -0.131651
											}
										}
									}
								}
								JOINT LeftHandIndex1
								{
									OFFSET 14.190811 -0.254547 3.840278
									CHANNELS 3 Xrotation Yrotation Zrotation
									JOINT LeftHandIndex2
									{
										OFFSET 3.551727 0.000000 -0.000000
										CHANNELS 3 Xrotation Yrotation Zrotation
										JOINT LeftHandIndex3
										{
											OFFSET 2.894196 0.000000 0.000000
											CHANNELS 3 Xrotation Yrotation Zrotation
											End Site
											{
												OFFSET -1.000603 2.690872 0.366626
											}
										}
									}
								}
								JOINT LeftHandMiddle1
								{
									OFFSET 13.776489 0.000000 0.000000
									CHANNELS 3 Xrotation Yrotation Zrotation
									JOINT LeftHandMiddle2
									{
										OFFSET 3.438232 0.000000 0.000000
										CHANNELS 3 Xrotation Yrotation Zrotation
										JOINT LeftHandMiddle3
										{
											OFFSET 3.691551 0.000000 0.000000
											CHANNELS 3 Xrotation Yrotation Zrotation
											End Site
											{
												OFFSET -1.082298 3.499527 0.457670
											}
										}
									}
								}
								JOINT LeftHandRing1
								{
									OFFSET 13.966164 -0.268127 -3.067488
									CHANNELS 3 Xrotation Yrotation Zrotation
									JOINT LeftHandRing2
									{
										OFFSET 3.162567 0.000000 0.000000
										CHANNELS 3 Xrotation Yrotation Zrotation
										JOINT LeftHandRing3
										{
											OFFSET 3.324348 0.000000 0.000000
											CHANNELS 3 Xrotation Yrotation Zrotation
											End Site
											{
												OFFSET -0.861900 3.184998 0.405154
											}
										}
									}
								}
								JOINT LeftHandPinky1
								{
									OFFSET 13.131393 -0.168503 -5.746925
									CHANNELS 3 Xrotation Yrotation Zrotation
									JOINT LeftHandPinky2
									{
										OFFSET 2.849182 0.000000 0.000000
										CHANNELS 3 Xrotation Yrotation Zrotation
										JOINT LeftHandPinky3
										{
											OFFSET 2.805038 0.000000 0.000000
											CHANNELS 3 Xrotation Yrotation Zrotation
											End Site
											{
												OFFSET -0.882500 2.642609 0.325652
											}
										}
									}
								}
							}
							JOINT Left_Sleeve
							{
								OFFSET 6.592125 -0.646545 0.805568
								CHANNELS 3 Xrotation Yrotation Zrotation
								End Site
								{
									OFFSET -0.000179 20.275787 -0.000000
								}
							}
						}
					}
				}
				JOINT RightShoulder
				{
					OFFSET -5.731700 15.108002 -2.763700
					CHANNELS 3 Xrotation Yrotation Zrotation
					JOINT RightArm
					{
						OFFSET -9.825497 2.506317 -1.597400
						CHANNELS 3 Xrotation Yrotation Zrotation
						JOINT RightForeArm
						{
							OFFSET -21.966242 0.000000 0.000000
							CHANNELS 3 Xrotation Yrotation Zrotation
							JOINT RightHand
							{
								OFFSET -33.879032 0.000000 0.000000
								CHANNELS 3 Xrotation Yrotation Zrotation
								JOINT RightHandThumb1
								{
									OFFSET -6.715286 -2.359680 3.363841
									CHANNELS 3 Xrotation Yrotation Zrotation
									JOINT RightHandThumb2
									{
										OFFSET -2.507072 -1.447464 1.447461
										CHANNELS 3 Xrotation Yrotation Zrotation
										JOINT RightHandThumb3
										{
											OFFSET -2.898338 -1.673355 1.673357
											CHANNELS 3 Xrotation Yrotation Zrotation
											End Site
											{
												OFFSET 0.295959 3.727692 -0.131651
											}
										}
									}
								}
								JOINT RightHandIndex1
								{
									OFFSET -14.190811 -0.254547 3.840278
									CHANNELS 3 Xrotation Yrotation Zrotation
									JOINT RightHandIndex2
									{
										OFFSET -3.551727 0.000000 -0.000000
										CHANNELS 3 Xrotation Yrotation Zrotation
										JOINT RightHandIndex3
										{
											OFFSET -2.894196 0.000000 0.000000
											CHANNELS 3 Xrotation Yrotation Zrotation
											End Site
											{
												OFFSET 1.000603 2.690872 0.366626
											}
										}
									}
								}
								JOINT RightHandMiddle1
								{
									OFFSET -13.776489 0.000000 0.000000
									CHANNELS 3 Xrotation Yrotation Zrotation
									JOINT RightHandMiddle2
									{
										OFFSET -3.438232 0.000000 0.000000
										CHANNELS 3 Xrotation Yrotation Zrotation
										JOINT RightHandMiddle3
										{
											OFFSET -3.691551 0.000000 0.000000
											CHANNELS 3 Xrotation Yrotation Zrotation
											End Site
											{
												OFFSET 1.082298 3.499527 0.457670
											}
										}
									}
								}
								JOINT RightHandRing1
								{
									OFFSET -13.966164 -0.268127 -3.067488
									CHANNELS 3 Xrotation Yrotation Zrotation
									JOINT RightHandRing2
									{
										OFFSET -3.162567 0.000000 0.000000
										CHANNELS 3 Xrotation Yrotation Zrotation
										JOINT RightHandRing3
										{
											OFFSET -3.324348 0.000000 0.000000
											CHANNELS 3 Xrotation Yrotation Zrotation
											End Site
											{
												OFFSET 0.861900 3.184998 0.405154
											}
										}
									}
								}
								JOINT RightHandPinky1
								{
									OFFSET -13.131393 -0.168503 -5.746925
									CHANNELS 3 Xrotation Yrotation Zrotation
									JOINT RightHandPinky2
									{
										OFFSET -2.849182 0.000000 0.000000
										CHANNELS 3 Xrotation Yrotation Zrotation
										JOINT RightHandPinky3
										{
											OFFSET -2.805038 0.000000 0.000000
											CHANNELS 3 Xrotation Yrotation Zrotation
											End Site
											{
												OFFSET 0.882500 2.642609 0.325652
											}
										}
									}
								}
							}
							JOINT Right_Sleeve
							{
								OFFSET -6.592125 -0.646545 0.805568
								CHANNELS 3 Xrotation Yrotation Zrotation
								End Site
								{
									OFFSET 0.000179 20.275787 -0.000000
								}
							}
						}
					}
				}
				JOINT Bind_Right_JacketString
				{
					OFFSET -3.534800 11.969597 7.200700
					CHANNELS 3 Xrotation Yrotation Zrotation
					JOINT Bind_Right_JacketString1
					{
						OFFSET -0.319900 -6.102600 2.794100
						CHANNELS 3 Xrotation Yrotation Zrotation
						End Site
						{
							OFFSET 0.000000 6.719452 0.000000
						}
					}
				}
				JOINT Bind_Left_JacketString
				{
					OFFSET 2.904800 11.969597 7.200700
					CHANNELS 3 Xrotation Yrotation Zrotation
					JOINT Bind_Left_JacketString1
					{
						OFFSET 0.364800 -5.904503 3.186800
						CHANNELS 3 Xrotation Yrotation Zrotation
						End Site
						{
							OFFSET 0.000000 6.719513 0.000000
						}
					}
				}
				JOINT HairE
				{
					OFFSET 5.915200 17.612701 -11.592200
					CHANNELS 3 Xrotation Yrotation Zrotation
					JOINT HairE1
					{
						OFFSET 0.289200 -7.171898 -1.284500
						CHANNELS 3 Xrotation Yrotation Zrotation
						End Site
						{
							OFFSET 0.000000 7.291756 0.000000
						}
					}
				}
				JOINT HairF
				{
					OFFSET -0.864800 17.612701 -11.592200
					CHANNELS 3 Xrotation Yrotation Zrotation
					JOINT HairF1
					{
						OFFSET 0.000000 -14.087097 -2.127501
						CHANNELS 3 Xrotation Yrotation Zrotation
						End Site
						{
							OFFSET 0.000000 14.246841 0.000000
						}
					}
				}
				JOINT HairG
				{
					OFFSET -8.087700 17.612701 -11.592200
					CHANNELS 3 Xrotation Yrotation Zrotation
					JOINT HairG1
					{
						OFFSET -0.293600 -6.081398 -0.910100
						CHANNELS 3 Xrotation Yrotation Zrotation
						End Site
						{
							OFFSET 0.000000 6.156120 0.000000
						}
					}
				}
			}
		}
	}
	JOINT Pouch
	{
		OFFSET 0.000000 4.394501 10.847300
		CHANNELS 3 Xrotation Yrotation Zrotation
		End Site
		{
			OFFSET 0.000000 21.880577 0.000000
		}
	}
	JOINT Bag
	{
		OFFSET -13.229000 4.813004 -0.593300
		CHANNELS 3 Xrotation Yrotation Zrotation
		End Site
		{
			OFFSET 0.000000 21.880577 0.000000
		}
	}
	JOINT OccupyGuyFacialAnim_Joint
	{
		OFFSET 1.000000 -70.206398 -1.655000
		CHANNELS 3 Xrotation Yrotation Zrotation
		End Site
		{
			OFFSET 0.000000 21.880577 0.000000
		}
	}
}
MOTION
Frames: 5
Frame Time: 0.016667
10.245972 24.669575 280.355225 46.385167 -48.602168 79.068360 0.000002 0.000000 -0.000000 -62.320183 -6.138388 37.723487 28.583551 -14.841682 1.868198 -2.573853 2.867778 -42.616976 0.000000 0.000001 -0.000002 -0.000001 0.000001 -0.000001 -103.354464 -6.395213 -12.446120 132.814244 19.393284 -1.903632 42.126872 16.739330 47.291769 0.000001 0.000000 -0.000001 0.000001 -0.000000 -0.000000 10.076580 -7.166135 -2.158187 20.581464 -10.516343 -0.144596 20.581467 -10.516332 -0.144610 6.882633 9.770576 -6.782385 -14.592952 28.209552 -15.856190 0.000001 -0.000001 0.000003 0.000001 -0.000001 0.000003 0.000001 -0.000001 0.000004 0.000001 -0.000001 0.000003 0.000000 0.000001 -0.000000 0.000001 -0.000001 0.000003 0.000000 0.000001 -0.000000 0.000001 -0.000001 0.000003 0.000001 -0.000001 0.000003 0.362237 -5.563732 -21.430641 0.286705 6.219474 -63.452034 -148.351763 -173.569081 -190.299343 39.822189 -0.729463 37.310632 -4.114270 -2.883211 2.590914 3.243734 8.782381 2.381174 0.000000 0.000001 0.000002 -1.241495 -9.199131 -7.937328 0.088638 0.738670 -16.880095 0.000003 0.000001 0.000000 -1.135459 -2.096676 -22.025803 -0.352563 -1.388809 -20.431048 -0.000003 -0.000000 0.000001 -0.604919 6.370739 -33.094285 -0.503181 -2.580184 -29.586105 0.000004 0.000001 -0.000003 1.054952 14.668675 -34.412324 -0.798112 -5.868241 -45.099941 -0.000002 -0.000003 -0.000003 0.000001 0.000000 0.000001 -0.050570 24.927853 12.864280 -31.840088 -0.829621 -5.819326 -379.939245 5.531944 357.334706 -23.422679 14.855844 -3.043149 -8.673376 4.254501 -11.634309 1.334053 -4.465152 -1.906672 0.000000 -0.000001 0.000003 -0.335810 9.317608 2.768388 0.227940 -1.535006 12.475391 -0.000002 -0.000002 0.000002 -1.156253 -1.644398 1.983702 -0.068696 0.174097 10.971378 0.000002 -0.000000 -0.000004 1.493771 -11.293065 7.517311 -0.170907 1.899005 13.176998 0.000002 0.000003 0.000004 2.276105 -19.063017 5.358329 -0.684461 6.522610 19.944094 -0.000000 -0.000001 -0.000003 0.000002 0.000002 0.000003 -0.000000 0.000001 -0.000000 0.000000 0.000001 -0.000000 -0.000000 0.000001 -0.000000 -0.000000 0.000001 -0.000000 -0.000000 0.000001 -0.000000 0.000000 0.000001 -0.000000 -0.000000 0.000001 -0.000000 -0.000000 0.000001 -0.000000 -0.000000 0.000001 -0.000000 0.000000 0.000001 -0.000000 0.000002 0.000000 -0.000000 0.000002 0.000000 -0.000000 0.000002 0.000000 -0.000000 
10.353573 26.056675 284.911285 48.300366 -47.681496 77.323643 -0.000000 0.000000 0.000001 -67.904880 -7.635188 39.557833 33.203862 -15.314423 0.066867 0.285212 1.769897 -43.160252 0.000001 0.000001 0.000001 0.000000 0.000000 -0.000001 -102.751091 -4.319850 -16.486618 131.847964 23.187044 -1.604143 43.614467 17.681528 47.830179 -0.000000 0.000002 0.000001 0.000000 0.000003 -0.000001 9.842401 -6.053309 -2.033243 20.001890 -8.523654 -0.281544 20.001886 -8.523664 -0.281542 4.786784 10.382572 -5.045981 -15.958515 27.751245 -13.817712 0.000000 0.000003 -0.000000 0.000000 0.000003 -0.000000 0.000000 0.000003 0.000001 0.000000 0.000003 0.000001 0.000001 0.000000 -0.000002 0.000000 0.000003 0.000001 0.000001 0.000000 -0.000002 0.000000 0.000003 -0.000000 0.000000 0.000003 -0.000000 0.397079 -5.187131 -22.907259 -0.202602 5.720628 -61.837582 -146.267026 -172.915501 -190.464592 42.708848 -0.958245 34.784439 -4.445388 -3.482521 2.728193 2.927690 8.062636 2.313111 0.000002 -0.000000 -0.000001 -1.336428 -9.878727 -7.883085 0.087932 0.739303 -16.878478 0.000002 0.000000 -0.000000 -1.169756 -2.214612 -21.672137 -0.339391 -1.353848 -20.091329 0.000002 0.000001 -0.000003 -0.583576 6.403815 -32.534554 -0.486653 -2.550238 -29.022949 0.000001 -0.000001 0.000002 1.177308 14.915649 -33.689573 -0.786904 -5.857031 -44.330725 0.000001 -0.000001 -0.000004 0.000000 -0.000001 -0.000001 -0.236751 25.773722 13.779216 -31.371424 -4.560770 -1.693849 -384.756768 7.161663 357.547508 -27.510940 12.091520 2.976913 -7.433053 2.682771 -10.818163 1.979907 -5.919502 -2.080315 -0.000000 -0.000001 -0.000000 -0.393899 9.214339 3.477798 0.148225 -1.237753 15.555659 -0.000000 -0.000000 0.000000 -1.160007 -1.569496 2.937668 -0.161679 0.560306 15.420983 0.000002 -0.000000 0.000001 1.457520 -10.868847 11.271570 -0.249400 2.199695 16.784290 -0.000002 0.000002 0.000002 2.263681 -18.388032 10.401823 -0.823590 6.882895 24.954895 0.000001 0.000000 0.000006 0.000001 0.000002 0.000003 -0.000000 0.000001 -0.000000 -0.000000 0.000001 -0.000001 -0.000000 0.000001 -0.000000 -0.000000 0.000001 -0.000000 -0.000000 0.000001 -0.000000 -0.000000 0.000001 -0.000001 -0.000000 0.000001 -0.000000 -0.000000 0.000001 -0.000000 -0.000000 0.000001 -0.000000 -0.000000 0.000001 -0.000001 -0.000000 0.000000 0.000001 -0.000000 0.000000 0.000001 -0.000000 0.000000 0.000001 
10.299591 27.396610 289.464691 49.166611 -47.118818 75.399100 0.000001 0.000001 0.000000 -74.807476 -9.697279 40.263525 41.972195 -15.413266 -1.802249 2.213025 0.723438 -39.104629 0.000001 -0.000000 -0.000001 -0.000000 0.000000 0.000002 -101.172252 -2.774061 -21.106572 130.127371 25.998494 -1.223332 45.683447 18.601390 47.608642 -0.000000 -0.000001 -0.000000 0.000003 0.000002 -0.000000 9.527524 -5.019197 -2.164552 19.277999 -6.757572 -0.819790 19.277989 -6.757575 -0.819792 2.631883 10.989360 -3.335723 -17.269380 27.297075 -11.811728 0.000002 -0.000002 0.000001 0.000002 -0.000002 0.000001 0.000002 -0.000002 0.000002 0.000002 -0.000002 0.000002 0.000001 0.000001 0.000003 0.000002 -0.000002 0.000002 0.000001 0.000001 0.000003 0.000002 -0.000002 0.000001 0.000002 -0.000002 0.000001 0.465117 -4.608223 -24.755905 -0.485223 5.159810 -58.615386 -144.010755 -172.188277 -190.600267 45.765689 -1.440277 30.198783 -4.773351 -4.073359 2.858757 2.615697 7.353346 2.242177 0.000002 0.000001 0.000000 -1.428893 -10.548857 -7.827910 0.087327 0.740305 -16.874303 0.000002 -0.000000 -0.000000 -1.201775 -2.331315 -21.321004 -0.326567 -1.319096 -19.753896 -0.000001 0.000003 0.000001 -0.562668 6.436985 -31.980298 -0.470582 -2.520375 -28.465305 -0.000003 0.000004 0.000001 1.292198 15.162489 -32.973394 -0.775892 -5.845673 -43.570002 -0.000000 -0.000001 -0.000001 0.000000 -0.000000 0.000000 -0.396554 26.079966 14.675669 -30.053478 -9.716193 4.642503 -391.232525 11.814324 359.537961 -30.477892 10.402946 5.041851 -6.133044 1.047378 -9.912463 2.654145 -7.447392 -2.244910 0.000001 -0.000001 0.000003 -0.450093 9.106284 4.214743 0.053979 -0.930991 18.768643 -0.000001 0.000000 0.000002 -1.164874 -1.492388 3.920524 -0.288218 0.955497 20.070736 -0.000001 -0.000001 0.000001 1.386761 -10.440754 15.187356 -0.353053 2.507118 20.550977 -0.000000 0.000000 -0.000002 2.167654 -17.721308 15.653574 -1.011868 7.240396 30.198667 -0.000000 0.000001 -0.000001 0.000000 -0.000002 -0.000002 -0.000000 -0.000000 -0.000000 -0.000000 0.000001 0.000000 -0.000000 -0.000000 -0.000000 -0.000000 -0.000000 -0.000000 -0.000000 -0.000000 -0.000000 -0.000000 0.000001 -0.000000 -0.000000 -0.000000 -0.000000 -0.000000 -0.000000 -0.000000 -0.000000 -0.000000 -0.000000 -0.000000 0.000001 -0.000000 0.000001 0.000001 0.000000 0.000001 0.000001 0.000000 0.000001 0.000001 0.000000 
10.152878 28.581249 294.004211 48.287665 -47.183702 72.903499 0.000001 0.000002 0.000001 -81.690565 -11.051403 39.642346 51.783451 -15.579742 -3.739341 3.493391 -0.009425 -34.188348 0.000000 0.000001 -0.000001 0.000002 -0.000001 0.000000 -98.473603 -1.137821 -26.320779 128.657623 27.826995 -0.855826 47.608328 19.170038 46.822142 0.000001 0.000003 -0.000000 -0.000002 0.000001 -0.000001 9.219053 -4.077676 -2.522705 18.588293 -5.258769 -1.680251 18.588310 -5.258759 -1.680265 0.571259 11.532744 -1.744110 -18.427321 26.870557 -9.953107 -0.000002 -0.000001 0.000001 -0.000002 -0.000001 0.000001 -0.000002 -0.000001 0.000002 -0.000002 -0.000001 0.000003 -0.000002 0.000000 0.000002 -0.000002 -0.000001 0.000003 -0.000002 0.000000 0.000002 -0.000002 -0.000001 0.000001 -0.000002 -0.000001 0.000001 0.565326 -3.855087 -26.469876 -0.377988 4.638998 -53.992372 -141.899543 -171.460848 -190.722979 48.339960 -2.166184 23.977634 -5.095728 -4.651578 2.981488 2.310050 6.659724 2.169104 0.000003 0.000003 -0.000003 -1.518664 -11.204956 -7.773434 0.086782 0.741557 -16.868778 0.000001 -0.000002 -0.000001 -1.231399 -2.446055 -20.976302 -0.314205 -1.284946 -19.422596 -0.000001 0.000000 0.000001 -0.542357 6.469896 -31.437001 -0.455117 -2.490888 -27.918719 -0.000003 0.000002 0.000001 1.399136 15.407073 -32.270786 -0.765231 -5.834283 -42.824873 -0.000000 0.000001 0.000003 0.000002 -0.000001 -0.000002 -0.494408 25.605338 15.379849 -27.617720 -15.476813 13.095690 -397.951300 18.998074 362.816097 -31.421517 9.986921 3.015518 -4.886139 -0.502099 -8.999061 3.296520 -8.910282 -2.385463 0.000001 -0.000001 0.000002 -0.500768 9.004452 4.908679 -0.045891 -0.643374 21.813377 -0.000003 0.000002 -0.000001 -1.170231 -1.421030 4.831196 -0.435745 1.321408 24.491219 -0.000001 0.000000 -0.000001 1.289290 -10.051192 18.899804 -0.471396 2.791347 24.127237 0.000000 -0.000000 0.000001 2.001316 -17.132455 20.631034 -1.228854 7.557143 35.191375 0.000000 0.000001 0.000001 -0.000003 0.000001 0.000003 0.000000 0.000000 0.000001 0.000000 0.000000 -0.000001 0.000000 0.000000 0.000000 0.000000 0.000000 0.000000 0.000000 0.000000 0.000001 0.000000 0.000000 -0.000000 0.000000 0.000000 0.000000 0.000000 0.000000 0.000000 0.000000 0.000000 0.000001 0.000000 0.000000 -0.000000 0.000001 0.000002 0.000001 0.000001 0.000002 0.000001 0.000001 0.000002 0.000001 
9.916031 29.610073 298.004852 45.354208 -47.752031 69.087111 0.000002 -0.000001 -0.000002 -88.112473 -11.090892 37.880755 60.427339 -17.312762 -5.406417 3.691939 -0.112548 -28.654505 -0.000001 0.000002 -0.000001 0.000000 -0.000001 -0.000002 -94.728010 -0.608279 -31.791921 127.466384 27.583325 -0.623957 49.286174 19.190282 45.220534 0.000001 -0.000000 0.000002 0.000002 0.000001 -0.000000 8.985076 -3.257875 -2.912849 18.069547 -4.089487 -2.543611 18.069542 -4.089491 -2.543624 -1.273842 11.977575 -0.348760 -19.370826 26.505681 -8.325431 -0.000000 0.000000 0.000000 -0.000000 0.000000 0.000000 -0.000000 0.000000 0.000001 -0.000000 0.000000 0.000001 0.000001 -0.000001 0.000003 -0.000000 0.000000 0.000001 0.000001 -0.000001 0.000003 -0.000000 0.000000 0.000000 -0.000000 0.000000 0.000000 0.682212 -2.993229 -27.468060 0.233017 4.312538 -48.450070 -140.251309 -170.824834 -190.853626 49.787141 -3.042604 16.958484 -5.410049 -5.213169 3.095065 2.013064 5.987046 2.094797 0.000002 -0.000000 0.000002 -1.606035 -11.842465 -7.723105 0.086207 0.742659 -16.864984 0.000003 -0.000001 -0.000002 -1.258604 -2.558219 -20.643617 -0.302527 -1.251992 -19.102878 -0.000000 0.000000 -0.000003 -0.522856 6.502133 -30.911698 -0.440444 -2.462197 -27.390257 -0.000001 0.000001 -0.000004 1.497865 15.647007 -31.590516 -0.755072 -5.822973 -42.103847 -0.000002 0.000000 -0.000004 -0.000000 -0.000000 -0.000000 -0.497469 24.275647 15.686296 -23.816535 -20.840919 23.243832 -402.950179 27.846654 366.379461 -29.926511 10.593029 -2.180187 -3.799656 -1.835370 -8.166503 3.852833 -10.181407 -2.494200 0.000000 0.000000 0.000001 -0.543956 8.918070 5.500742 -0.141190 -0.399375 24.427774 -0.000001 -0.000001 0.000002 -1.175216 -1.361767 5.590605 -0.584244 1.627684 28.302296 -0.000001 0.000000 -0.000001 1.182416 -9.731885 22.090020 -0.588013 3.029215 27.205509 0.000000 0.000000 -0.000003 1.802915 -16.667864 24.912348 -1.441349 7.809750 39.501583 0.000000 0.000002 0.000001 0.000001 0.000001 0.000002 0.000000 0.000000 0.000001 0.000001 -0.000002 0.000001 0.000000 0.000000 0.000001 0.000000 0.000000 0.000001 0.000000 0.000000 0.000001 0.000001 -0.000002 0.000001 0.000000 0.000000 0.000001 0.000000 0.000000 0.000001 0.000000 0.000000 0.000001 0.000001 -0.000002 0.000001 0.000002 -0.000001 -0.000002 0.000002 -0.000001 -0.000002 0.000002 -0.000001 -0.000002 
